<svg width="14" height="14" viewBox="0 0 14 14" fill="none" xmlns="http://www.w3.org/2000/svg">
<path d="M6.54587 4.1296L6.86987 4.88742C6.89183 4.95331 6.95224 4.99175 7.01265 4.99725L7.83636 5.07413C8.01209 5.0906 8.07799 5.30477 7.95169 5.42009L7.33115 5.96374C7.28173 6.00768 7.25976 6.07357 7.27624 6.13398L7.45745 6.94122C7.49589 7.11146 7.31468 7.24325 7.16091 7.15539L6.45252 6.73255C6.3976 6.6996 6.32621 6.6996 6.2713 6.73255L5.5629 7.15539C5.41463 7.24325 5.22792 7.11146 5.26636 6.94122L5.44758 6.13398C5.46405 6.07357 5.44209 6.00768 5.39266 5.96374L4.77213 5.42009C4.64033 5.30477 4.71172 5.0906 4.88745 5.07413L5.71117 4.99725C5.77707 4.99175 5.83198 4.95331 5.85944 4.89291L6.18343 4.13509C6.24933 3.97034 6.47448 3.97034 6.54587 4.1296Z" stroke="#F0C932" stroke-width="0.549146" stroke-miterlimit="10" stroke-linecap="round" stroke-linejoin="round"/>
<path d="M10.0974 5.73566C10.1116 3.67332 8.45124 1.98996 6.3889 1.97576C4.32656 1.96157 2.64319 3.62192 2.629 5.68426C2.61481 7.7466 4.27516 9.42996 6.3375 9.44416C8.39984 9.45835 10.0832 7.798 10.0974 5.73566Z" stroke="#F0C932" stroke-width="0.549146" stroke-miterlimit="10" stroke-linecap="round" stroke-linejoin="round"/>
<path d="M5.85393 9.40689L4.92587 11.7408L3.7507 10.3953L1.97696 10.5601L3.15213 7.61667" stroke="#F0C932" stroke-width="0.549146" stroke-miterlimit="10" stroke-linecap="round" stroke-linejoin="round"/>
<path d="M6.86438 9.40689L7.79793 11.7408L8.96761 10.3953L10.7468 10.5601L9.56618 7.61667" stroke="#F0C932" stroke-width="0.549146" stroke-miterlimit="10" stroke-linecap="round" stroke-linejoin="round"/>
</svg>
