<svg width="16" height="16" viewBox="0 0 7 8" fill="none" xmlns="http://www.w3.org/2000/svg">
<g clip-path="url(#clip0_1_162)">
<path d="M3.24424 2.04185C2.31858 2.04185 1.57193 2.78465 1.57193 3.70554C1.57193 4.62643 2.31858 5.36923 3.24424 5.36923C4.1699 5.36923 4.91654 4.62643 4.91654 3.70554C4.91654 2.78465 4.1699 2.04185 3.24424 2.04185ZM3.24424 4.78715C2.64605 4.78715 2.15702 4.30209 2.15702 3.70554C2.15702 3.10899 2.6446 2.62393 3.24424 2.62393C3.84388 2.62393 4.33146 3.10899 4.33146 3.70554C4.33146 4.30209 3.84243 4.78715 3.24424 4.78715V4.78715ZM5.37501 1.9738C5.37501 2.18954 5.20036 2.36185 4.98495 2.36185C4.76809 2.36185 4.59489 2.18809 4.59489 1.9738C4.59489 1.7595 4.76954 1.58575 4.98495 1.58575C5.20036 1.58575 5.37501 1.7595 5.37501 1.9738ZM6.4826 2.36764C6.45786 1.84783 6.33851 1.38738 5.95573 1.00802C5.5744 0.628659 5.11157 0.509928 4.58907 0.483865C4.05055 0.453458 2.43647 0.453458 1.89795 0.483865C1.37691 0.50848 0.914074 0.627211 0.531292 1.00657C0.148511 1.38593 0.0306199 1.84638 0.00442195 2.36619C-0.0261424 2.90193 -0.0261424 4.5077 0.00442195 5.04344C0.0291645 5.56325 0.148511 6.0237 0.531292 6.40306C0.914074 6.78242 1.37545 6.90115 1.89795 6.92721C2.43647 6.95762 4.05055 6.95762 4.58907 6.92721C5.11157 6.9026 5.5744 6.78387 5.95573 6.40306C6.33706 6.0237 6.4564 5.56325 6.4826 5.04344C6.51316 4.5077 6.51316 2.90338 6.4826 2.36764V2.36764ZM5.7869 5.61827C5.67337 5.90207 5.4536 6.12071 5.16688 6.2351C4.73752 6.40451 3.71871 6.36541 3.24424 6.36541C2.76976 6.36541 1.7495 6.40306 1.3216 6.2351C1.03633 6.12216 0.816559 5.90352 0.701579 5.61827C0.531292 5.19113 0.570589 4.17757 0.570589 3.70554C0.570589 3.23351 0.532748 2.2185 0.701579 1.79281C0.815104 1.50901 1.03488 1.29037 1.3216 1.17598C1.75095 1.00657 2.76976 1.04567 3.24424 1.04567C3.71871 1.04567 4.73898 1.00802 5.16688 1.17598C5.45215 1.28892 5.67192 1.50756 5.7869 1.79281C5.95719 2.21995 5.91789 3.23351 5.91789 3.70554C5.91789 4.17757 5.95719 5.19258 5.7869 5.61827Z" fill="white"/>
</g>
<defs>
<clipPath id="clip0_1_162">
<rect width="6.58976" height="7.41348" fill="white"/>
</clipPath>
</defs>
</svg>
