<svg width="16" height="16" viewBox="0 0 8 6" fill="none" xmlns="http://www.w3.org/2000/svg">
<g clip-path="url(#clip0_1_152)">
<path d="M7.32248 0.702281C7.04779 0.819444 6.75644 0.896349 6.4581 0.93044C6.76885 0.751113 7.00745 0.467143 7.11981 0.128795C6.8244 0.297579 6.5012 0.416497 6.16416 0.480413C5.88963 0.198815 5.49853 0.0228271 5.06565 0.0228271C4.23451 0.0228271 3.56066 0.671603 3.56066 1.47178C3.56066 1.58537 3.57398 1.69594 3.59963 1.80202C2.34888 1.74157 1.23996 1.16472 0.497682 0.288065C0.368165 0.50207 0.293951 0.751003 0.293951 1.01652C0.293951 1.51924 0.55966 1.96273 0.963453 2.22258C0.724464 2.21538 0.490733 2.15323 0.281773 2.04133C0.281687 2.04739 0.281687 2.05346 0.281687 2.05956C0.281687 2.76161 0.80044 3.34726 1.48888 3.48038C1.26727 3.53841 1.03481 3.5469 0.809266 3.50521C1.00076 4.08087 1.55656 4.49978 2.21509 4.51151C1.70003 4.90012 1.05111 5.13178 0.346044 5.13178C0.224551 5.13178 0.104777 5.12491 -0.0129623 5.11153C0.653044 5.52266 1.4441 5.76254 2.29398 5.76254C5.06216 5.76254 6.57587 3.55459 6.57587 1.63983C6.57587 1.57698 6.57443 1.51449 6.57151 1.45236C6.86614 1.24729 7.12044 0.993291 7.32248 0.702281" fill="white"/>
</g>
<defs>
<clipPath id="clip0_1_152">
<rect width="7.41348" height="5.76604" fill="white"/>
</clipPath>
</defs>
</svg>
