<svg width="9" height="9" viewBox="0 0 9 9" fill="none" xmlns="http://www.w3.org/2000/svg">
<path d="M4.07711 0.142318C4.13875 -0.0474078 4.40716 -0.0474073 4.46881 0.142318L5.33634 2.81231C5.36391 2.89716 5.44298 2.95461 5.53219 2.95461H8.33959C8.53908 2.95461 8.62203 3.20988 8.46064 3.32714L6.1894 4.97729C6.11723 5.02972 6.08703 5.12267 6.11459 5.20752L6.98213 7.87752C7.04377 8.06724 6.82663 8.22501 6.66523 8.10775L4.394 6.45761C4.32183 6.40517 4.22409 6.40517 4.15192 6.45761L1.88068 8.10775C1.71929 8.22501 1.50214 8.06724 1.56379 7.87752L2.43132 5.20752C2.45889 5.12267 2.42869 5.02972 2.35651 4.97729L0.085281 3.32714C-0.076109 3.20988 0.00683483 2.95461 0.206324 2.95461H3.01372C3.10294 2.95461 3.18201 2.89716 3.20957 2.81231L4.07711 0.142318Z" fill="#F1CC4A"/>
</svg>
